<svg width="32" height="32" viewBox="0 0 32 32" fill="none" xmlns="http://www.w3.org/2000/svg">
<g clip-path="url(#clip0_2162_1807)">
<path d="M29.9175 3.1228C29.2018 2.98161 28.1175 2.84967 27.0163 3.02311C26.0181 3.18023 25.1889 3.55517 24.5448 4.13848C23.6387 3.5658 22.4701 3.10311 20.8826 2.82317C19.295 2.54311 18.0388 2.57836 16.9915 2.80667C16.5857 2.03817 15.9347 1.40223 15.0504 0.913172C14.075 0.373734 13.0109 0.126797 12.2901 0.0146092C11.7096 -0.0756408 11.1431 0.259797 10.943 0.812234C10.3808 2.3643 10.2687 4.57273 11.1878 6.23842C10.7573 6.49686 10.2929 6.73205 9.77404 6.92492C9.2756 7.1103 8.89591 7.50517 8.73222 8.00842C8.57091 8.5043 8.64379 9.03786 8.9321 9.47217C9.30079 10.0274 9.71072 10.5598 10.1545 11.0612C9.86154 11.3062 9.6666 11.6389 9.59591 12.0114H3.57735C2.2056 12.0114 1.08966 13.1273 1.08966 14.499V23.7687C1.08966 24.0276 1.29954 24.2374 1.55841 24.2374C1.81729 24.2374 2.02716 24.0276 2.02716 23.7687V14.499C2.02716 13.6442 2.72254 12.9488 3.57735 12.9488H9.55879C9.56347 13.0539 9.57122 13.1525 9.58285 13.234C9.69766 14.0374 10.3955 14.6431 11.206 14.6431H11.2062C11.284 14.6431 11.3627 14.6375 11.4399 14.6264C12.2701 14.5077 12.8737 13.772 12.8476 12.9488H15.0414C15.8962 12.9488 16.5916 13.6442 16.5916 14.499V14.8968V14.8992V29.5123C16.5916 30.3671 15.8962 31.0625 15.0414 31.0625H6.40047V29.1768C6.40047 27.8051 5.28454 26.6891 3.91279 26.6891H2.0271V25.9543C2.0271 25.6954 1.81722 25.4855 1.55835 25.4855C1.29947 25.4855 1.0896 25.6954 1.0896 25.9543V27.1579C1.0896 29.8278 3.26179 32 5.93172 32H15.0413C16.4131 32 17.529 30.884 17.529 29.5123V22.1675C17.8345 22.2197 18.1326 22.2574 18.4228 22.2807C18.4942 23.1227 18.2625 23.7679 17.9963 24.1124C17.7282 24.4592 17.6111 24.8897 17.6668 25.3246C17.7225 25.7595 17.9442 26.1466 18.291 26.4147C18.5812 26.639 18.928 26.7575 19.294 26.7575C19.8066 26.7575 20.2802 26.525 20.5933 26.1199C21.4733 24.9815 21.8584 23.4219 21.672 21.7939C21.9608 21.6595 22.2307 21.5 22.4785 21.3137C23.4681 20.57 24.0624 19.467 24.249 18.0354C24.673 18.3071 24.9613 18.6592 25.1223 19.1017C25.3573 19.748 25.9773 20.1823 26.6648 20.1823C26.8562 20.1823 27.0448 20.1489 27.2258 20.0831C28.0762 19.7737 28.5165 18.83 28.2072 17.9796C27.8953 17.122 27.2487 16.0245 25.9125 15.2088C27.3052 14.7382 28.6271 14.0522 29.8382 13.1585C30.2577 12.849 30.5086 12.3726 30.5267 11.8514C30.545 11.3225 30.3232 10.8215 29.9183 10.477C29.497 10.1185 29.1412 9.73898 28.8252 9.34911C29.0504 9.15317 29.2618 8.93236 29.4564 8.68823C29.6178 8.4858 29.5845 8.19086 29.3821 8.02948C29.1797 7.86811 28.8848 7.90136 28.7233 8.1038C28.58 8.28367 28.426 8.44717 28.2636 8.59386C28.0222 8.24298 27.7997 7.88923 27.5802 7.53955C27.3266 7.13561 27.0712 6.72892 26.7885 6.33123C27.6711 5.63886 28.7801 5.14548 29.9397 4.92998C29.8918 5.39792 29.7923 5.88017 29.646 6.33317C29.5664 6.57948 29.7016 6.84373 29.948 6.9233C29.9958 6.9388 30.0444 6.94611 30.0922 6.94611C30.2901 6.94611 30.474 6.81973 30.5381 6.62136C30.7736 5.89236 30.9008 5.12536 30.909 4.39805C30.9092 4.39061 30.9096 4.38317 30.9095 4.37567C30.9096 4.36155 30.9104 4.34723 30.9104 4.33317C30.9114 3.74542 30.4938 3.23648 29.9175 3.1228ZM5.46297 31.0333C3.6841 30.8194 2.27016 29.4054 2.05622 27.6265H3.91279C4.7676 27.6265 5.46297 28.322 5.46297 29.1767V31.0333ZM16.0656 3.07423C15.6561 3.22311 15.2799 3.40217 14.9266 3.60098C14.2723 2.55205 13.3211 1.62342 12.2166 0.952422C13.349 1.13736 15.1983 1.65248 16.0656 3.07423ZM11.6464 1.70236C12.6645 2.30173 13.5397 3.1458 14.1332 4.0998C13.7316 4.37686 13.3522 4.67142 12.9758 4.96423C12.6506 5.21717 12.3212 5.47286 11.9752 5.71955C11.4745 4.75205 11.2323 3.2778 11.6464 1.70236ZM11.9 12.8134C11.8987 12.8419 11.9 12.871 11.904 12.9004C11.9041 12.9006 11.9049 12.9064 11.9049 12.9066H11.905C11.905 12.9069 11.905 12.9072 11.9051 12.9075H11.905C11.9052 12.9092 11.9055 12.9109 11.9057 12.9125C11.9058 12.913 11.9058 12.9136 11.9059 12.914C11.9535 13.2925 11.6849 13.6443 11.307 13.6984C11.2735 13.7031 11.2396 13.7055 11.2061 13.7055C11.2061 13.7055 11.2061 13.7055 11.206 13.7055C10.859 13.7056 10.5601 13.4458 10.5108 13.1012C10.481 12.8923 10.4878 12.4252 10.508 12.2425C10.5286 12.0555 10.6208 11.8877 10.7676 11.7701C10.8418 11.7106 10.9256 11.668 11.0143 11.6428C11.0243 11.6405 11.0342 11.638 11.0439 11.635C11.0965 11.6225 11.1506 11.6157 11.2055 11.6157C11.2318 11.6157 11.2582 11.6171 11.2847 11.6201C11.67 11.6626 11.9492 12.0107 11.9072 12.3959C11.9069 12.3982 11.9067 12.4004 11.9065 12.4026C11.8982 12.4909 11.8964 12.6867 11.9 12.8134ZM19.8517 25.5466C19.7174 25.7203 19.5142 25.82 19.294 25.82C19.1375 25.82 18.9889 25.7691 18.8644 25.6729C18.7157 25.5579 18.6206 25.3919 18.5967 25.2055C18.5728 25.019 18.623 24.8344 18.738 24.6857C19.1989 24.0895 19.4197 23.227 19.3633 22.3057C19.8592 22.2899 20.3265 22.2264 20.7615 22.1161C20.8655 23.4224 20.5446 24.6502 19.8517 25.5466ZM23.3369 17.7785C23.2034 19.0185 22.725 19.9557 21.9153 20.5642C21.647 20.7658 21.3439 20.9289 21.011 21.0554C21.0002 21.059 20.9894 21.0628 20.9789 21.0671C20.377 21.2902 19.6769 21.3923 18.8944 21.3685C18.8734 21.3659 18.852 21.3652 18.8304 21.3655C18.4503 21.3508 18.0521 21.3082 17.6362 21.2349C17.6005 21.2287 17.5648 21.2214 17.5291 21.2146V15.5012C17.8856 15.5902 18.2457 15.6684 18.6065 15.732C19.4985 15.8893 20.3877 15.967 21.2677 15.967C21.9328 15.967 22.5923 15.9222 23.2426 15.8342C23.3738 16.4799 23.4066 17.132 23.3369 17.7785ZM27.3263 18.2999C27.4589 18.6646 27.2702 19.0694 26.9055 19.202C26.8276 19.2304 26.7467 19.2447 26.665 19.2447C26.3702 19.2447 26.1043 19.0585 26.0035 18.7812C25.7174 17.9947 25.1477 17.3975 24.3095 17.001C24.3031 16.559 24.2563 16.117 24.169 15.6779C24.3061 15.6501 24.4427 15.6202 24.5787 15.5884C25.9464 16.1382 26.8713 17.0492 27.3263 18.2999ZM29.2817 12.404C26.2778 14.6204 22.5445 15.4743 18.7692 14.8088C18.3533 14.7354 17.9377 14.6429 17.5291 14.5339V14.499C17.5291 13.1273 16.4132 12.0113 15.0414 12.0113H12.8196C12.6873 11.3229 12.1197 10.769 11.3881 10.6883C11.2838 10.6767 11.18 10.6754 11.0776 10.6832C10.5769 10.1444 10.1184 9.5638 9.71329 8.95361C9.67048 8.88905 9.63929 8.81942 9.61804 8.7473C12.7682 11.0662 15.0535 10.0561 16.912 9.2343C17.9798 8.76205 18.9021 8.35455 19.8771 8.52617C20.852 8.69811 21.5792 9.3968 22.4212 10.2057C23.5615 11.3013 24.9051 12.5924 27.214 12.5924C27.8722 12.5924 28.6094 12.4867 29.4422 12.2424C29.3973 12.303 29.3441 12.3579 29.2817 12.404ZM29.3108 11.1909C29.3416 11.2171 29.3692 11.2459 29.3953 11.2758C27.9307 11.7432 26.6985 11.7809 25.6422 11.3894C24.6071 11.0059 23.826 10.2554 23.0707 9.52973C22.198 8.69136 21.2957 7.82442 20.0398 7.60298C18.7839 7.38142 17.6395 7.88755 16.5328 8.37692C15.5747 8.80048 14.5841 9.23855 13.4803 9.24492C12.3531 9.25192 11.2086 8.79473 9.99235 7.85455C10.027 7.83542 10.0628 7.8178 10.1007 7.80367C11.5408 7.26836 12.5629 6.47317 13.5514 5.70417C14.0393 5.32467 14.5095 4.95955 15.0098 4.64105C15.0148 4.63792 15.0197 4.63492 15.0245 4.63167C15.5647 4.28911 16.1406 4.00123 16.8133 3.8103C16.8338 3.80648 16.8543 3.8008 16.8747 3.79405C17.8769 3.52055 19.093 3.45967 20.7198 3.74642C22.3417 4.03242 23.4625 4.50336 24.3098 5.10067C24.3288 5.11623 24.3485 5.13061 24.3692 5.14273C24.9347 5.55148 25.377 6.01773 25.7669 6.52323C25.7735 6.53267 25.7808 6.5418 25.7883 6.55086C26.146 7.01817 26.4602 7.51861 26.7862 8.03792C27.4522 9.09861 28.1407 10.1953 29.3108 11.1909ZM26.2135 5.59105C25.95 5.28392 25.6583 4.98748 25.3252 4.70805C26.0298 4.15273 27.3523 3.59017 29.6647 4.02942C28.3977 4.2823 27.1867 4.82942 26.2135 5.59105ZM10.791 25.4923C11.0499 25.4923 11.2598 25.2825 11.2598 25.0235V18.6653C11.2598 17.5898 10.3848 16.7149 9.30935 16.7149C8.23385 16.7149 7.35891 17.5898 7.35891 18.6653V26.5595C7.35891 28.1702 8.66929 29.4805 10.2799 29.4805C11.8905 29.4805 13.2009 28.1702 13.2009 26.5595V18.6653C13.2009 16.5195 11.4551 14.7737 9.30929 14.7737C7.16348 14.7737 5.41766 16.5195 5.41766 18.6653V25.0235C5.41766 25.2825 5.62754 25.4923 5.88641 25.4923C6.14529 25.4923 6.35516 25.2825 6.35516 25.0235V18.6653C6.35516 17.0364 7.68041 15.7112 9.30929 15.7112C10.9382 15.7112 12.2634 17.0364 12.2634 18.6653V26.5595C12.2634 27.6532 11.3736 28.543 10.2799 28.543C9.18623 28.543 8.29641 27.6532 8.29641 26.5595V18.6653C8.29641 18.1068 8.75079 17.6524 9.30929 17.6524C9.86785 17.6524 10.3222 18.1068 10.3222 18.6653V25.0235C10.3223 25.2825 10.5321 25.4923 10.791 25.4923ZM20.0335 11.6452C19.8255 11.8132 19.5557 11.883 19.2933 11.8367C19.0309 11.7904 18.8013 11.6325 18.6633 11.4036C18.5297 11.1818 18.2417 11.1104 18.0199 11.244C17.7982 11.3776 17.7267 11.6656 17.8603 11.8874C18.1382 12.3485 18.6012 12.6665 19.1305 12.7599C19.2379 12.7788 19.3457 12.7881 19.4531 12.7881C19.8752 12.7881 20.2886 12.6441 20.6225 12.3745C20.8239 12.2118 20.8553 11.9167 20.6927 11.7153C20.53 11.5139 20.2349 11.4825 20.0335 11.6452ZM24.396 7.3518C24.0495 7.29061 23.7001 7.36817 23.4119 7.56992C23.1238 7.77173 22.9315 8.07361 22.8703 8.42005C22.8254 8.67498 22.9957 8.91811 23.2506 8.96305C23.5057 9.00836 23.7487 8.83773 23.7937 8.5828C23.8112 8.48298 23.8667 8.39605 23.9497 8.33792C24.0327 8.2798 24.1333 8.25755 24.2331 8.27505C24.4391 8.31142 24.5772 8.50855 24.5408 8.71455C24.4959 8.96948 24.6661 9.21267 24.9211 9.25755C24.9487 9.26242 24.976 9.26473 25.0031 9.26473C25.2263 9.26473 25.424 9.10473 25.4642 8.87736C25.5902 8.1623 25.1111 7.47792 24.396 7.3518ZM16.0323 5.87711C15.3174 5.75061 14.6328 6.23017 14.5067 6.94523C14.4617 7.20017 14.632 7.4433 14.8869 7.48823C15.1416 7.53361 15.385 7.36298 15.4299 7.10805C15.4663 6.90205 15.6635 6.7643 15.8695 6.8003C15.9692 6.81792 16.0562 6.8733 16.1143 6.9563C16.1724 7.0393 16.1947 7.13998 16.1771 7.23973C16.1322 7.49467 16.3024 7.73786 16.5573 7.78273C16.5848 7.78761 16.6122 7.78992 16.6393 7.78992C16.8625 7.78992 17.0603 7.62986 17.1003 7.40255C17.1614 7.05611 17.0839 6.70667 16.8822 6.41855C16.6805 6.13042 16.3787 5.93811 16.0323 5.87711ZM20.6421 9.40998C20.0835 9.15342 19.4683 9.04498 18.8557 9.09498C18.602 9.11573 18.3644 9.22767 18.1869 9.41011C17.9472 9.65648 17.9889 10.0598 18.274 10.2519L19.0648 10.7849C19.3004 10.9435 19.5921 10.995 19.8677 10.9264L20.7931 10.6961C21.1267 10.6131 21.3039 10.2484 21.1628 9.93486C21.0585 9.70267 20.8735 9.51623 20.6421 9.40998Z" fill="#EDF2F7"/>
</g>
<defs>
<clipPath id="clip0_2162_1807">
<rect width="32" height="32" fill="white"/>
</clipPath>
</defs>
</svg>
