<svg width="24" height="24" viewBox="0 0 24 24" fill="none" xmlns="http://www.w3.org/2000/svg">
<path fill-rule="evenodd" clip-rule="evenodd" d="M9.5601 4.1001H13.1001C13.3388 4.1001 13.5677 4.19492 13.7365 4.3637C13.9053 4.53248 14.0001 4.7614 14.0001 5.0001C14.0001 5.23879 13.9053 5.46771 13.7365 5.63649C13.5677 5.80528 13.3388 5.9001 13.1001 5.9001H9.6001C8.6001 5.9001 7.9101 5.9001 7.3701 5.9401C6.8501 5.9901 6.5501 6.0701 6.3201 6.1801C5.82891 6.42971 5.42971 6.82891 5.1801 7.3201C5.0701 7.5501 4.9801 7.8501 4.9401 8.3701C4.9001 8.9101 4.9001 9.6101 4.9001 10.6001V14.4001C4.9001 15.4001 4.9001 16.0901 4.9401 16.6301C4.9901 17.1501 5.0701 17.4501 5.1801 17.6801C5.4301 18.1701 5.8301 18.5701 6.3201 18.8201C6.5501 18.9301 6.8501 19.0201 7.3701 19.0601C7.9101 19.1001 8.6101 19.1001 9.6001 19.1001H13.4001C14.4001 19.1001 15.0901 19.1001 15.6301 19.0601C16.1501 19.0101 16.4501 18.9301 16.6801 18.8201C17.1713 18.5705 17.5705 18.1713 17.8201 17.6801C17.9301 17.4501 18.0201 17.1501 18.0601 16.6301C18.1001 16.0901 18.1001 15.3901 18.1001 14.4001V10.9001C18.1001 10.6614 18.1949 10.4325 18.3637 10.2637C18.5325 10.0949 18.7614 10.0001 19.0001 10.0001C19.2388 10.0001 19.4677 10.0949 19.6365 10.2637C19.8053 10.4325 19.9001 10.6614 19.9001 10.9001V14.4401C19.9001 15.3901 19.9001 16.1501 19.8501 16.7701C19.8236 17.3697 19.6774 17.9579 19.4201 18.5001C18.9985 19.3265 18.3265 19.9985 17.5001 20.4201C16.9579 20.6774 16.3697 20.8236 15.7701 20.8501C15.1501 20.9001 14.3901 20.9001 13.4401 20.9001H9.5601C8.6101 20.9001 7.8501 20.9001 7.2301 20.8501C6.63053 20.8236 6.04232 20.6774 5.5001 20.4201C4.67369 19.9985 4.00168 19.3265 3.5801 18.5001C3.32309 17.9578 3.1769 17.3696 3.1501 16.7701C3.1001 16.1501 3.1001 15.3901 3.1001 14.4401V10.5601C3.1001 9.6101 3.1001 8.8501 3.1501 8.2301C3.2001 7.5901 3.3101 7.0301 3.5801 6.5001C4.00168 5.67369 4.67369 5.00168 5.5001 4.5801C6.04241 4.32309 6.63057 4.1769 7.2301 4.1501C7.8501 4.1001 8.6101 4.1001 9.5601 4.1001Z" fill="#EDF2F7"/>
<path fill-rule="evenodd" clip-rule="evenodd" d="M19.1201 3.33006C19.2207 3.22282 19.3419 3.13686 19.4764 3.07726C19.6108 3.01766 19.7559 2.98564 19.9029 2.98308C20.05 2.98052 20.1961 3.00747 20.3325 3.06236C20.469 3.11724 20.5931 3.19893 20.6974 3.3026C20.8017 3.40626 20.8842 3.5298 20.94 3.66591C20.9957 3.80201 21.0236 3.94791 21.022 4.09499C21.0204 4.24206 20.9893 4.38732 20.9306 4.52216C20.8719 4.65701 20.7867 4.77871 20.6801 4.88006L20.3301 5.23006C20.2929 5.26785 20.2485 5.29787 20.1996 5.31835C20.1506 5.33884 20.0981 5.34939 20.0451 5.34939C19.992 5.34939 19.9395 5.33884 19.8906 5.31835C19.8417 5.29787 19.7973 5.26785 19.7601 5.23006L18.7701 4.24006C18.6968 4.16529 18.6557 4.06476 18.6557 3.96006C18.6557 3.85536 18.6968 3.75483 18.7701 3.68006L19.1201 3.33006ZM18.5201 5.90006L18.1001 5.48006C17.6601 5.04006 17.3801 5.06006 16.9701 5.48006L11.8401 10.6001C9.89008 12.5601 8.65008 14.4901 9.08008 14.9201C9.51008 15.3501 11.4401 14.1201 13.4001 12.1601L18.5201 7.03006C18.9601 6.59006 18.9401 6.31006 18.5201 5.90006Z" fill="#EDF2F7"/>
</svg>
