<svg width="22" height="22" viewBox="0 0 22 22" fill="none" xmlns="http://www.w3.org/2000/svg">
<g clip-path="url(#clip0_1333_2871)">
<path d="M21.9718 14.9688L20.0167 9.59115C19.9507 9.40872 19.7371 9.29962 19.5832 9.28955L4.80998 9.3968C4.75694 9.3968 4.70458 9.40687 4.65507 9.42516L0.301203 11.0292C0.0647207 11.1163 -0.057129 11.3785 0.0289714 11.6159L3.69537 21.6986C3.73666 21.8132 3.82276 21.9067 3.93286 21.9581C3.99328 21.9856 4.05941 22.0002 4.12537 22.0002C4.17942 22.0002 4.23262 21.991 4.28398 21.9718L21.6996 15.5554C21.9361 15.4685 22.0579 15.2063 21.9718 14.9688Z" fill="#388E3C"/>
<path d="M21.8654 7.46825L14.5326 0.135281C14.3539 -0.0434659 14.0632 -0.0434659 13.8846 0.135281L0.135403 13.8845C-0.0433439 14.0632 -0.0433439 14.3539 0.135403 14.5327L7.46821 21.8655C7.55716 21.9553 7.67448 22.0003 7.7918 22.0003C7.90912 22.0003 8.02643 21.9553 8.11623 21.8665L21.8654 8.11728C22.0442 7.93753 22.0442 7.64801 21.8654 7.46825Z" fill="#4CAF50"/>
<path d="M13.6893 11.428C13.5317 10.7498 13.1246 10.0568 12.5454 9.47739C11.2722 8.20434 9.60124 7.88075 8.74056 8.74142C7.87973 9.60209 8.20332 11.2731 9.47653 12.5463C10.0559 13.1255 10.7487 13.5325 11.4271 13.6903C11.6369 13.7398 11.8395 13.7636 12.032 13.7636C12.5325 13.7636 12.9642 13.5995 13.2814 13.2823C13.7205 12.8424 13.8653 12.1843 13.6893 11.428Z" fill="#FAFAFA"/>
<path d="M7.79171 22.0001C7.67439 22.0001 7.55707 21.9551 7.46728 21.8663L0.134304 14.5334C-0.0444425 14.3546 -0.0444425 14.0641 0.134304 13.8854L13.8835 0.136135C14.0623 -0.0426114 14.3528 -0.0426114 14.5315 0.136135L21.8645 7.46911C22.0433 7.64785 22.0433 7.93838 21.8645 8.11713L8.1153 21.8663C8.02634 21.9551 7.90902 22.0001 7.79171 22.0001ZM1.10692 14.2089L7.79171 20.8937L20.8929 7.79253L14.208 1.10774L1.10692 14.2089Z" fill="black"/>
<path d="M4.12534 22.0002C4.05938 22.0002 3.99325 21.9856 3.93183 21.9581C3.82189 21.9067 3.73579 21.8132 3.6945 21.6986L1.59906 15.9368C1.51195 15.6994 1.63481 15.4363 1.87314 15.3493C2.11247 15.2641 2.37463 15.3859 2.46073 15.6234L4.39841 20.9526L6.64592 20.124C6.88056 20.0359 7.14641 20.1579 7.23453 20.3952C7.32247 20.6327 7.20045 20.8957 6.96313 20.9836L4.28395 21.9708C4.23259 21.991 4.17939 22.0002 4.12534 22.0002Z" fill="black"/>
<path d="M1.1921 13.934C1.00512 13.934 0.829231 13.8185 0.761425 13.6325L0.0281444 11.616C-0.0589631 11.3785 0.0628867 11.1163 0.300376 11.0292L4.65424 9.42518C4.88972 9.33908 5.15557 9.45909 5.24268 9.69658C5.33062 9.9339 5.20877 10.1969 4.97145 10.285L1.04557 11.7314L1.62293 13.319C1.71004 13.5573 1.58718 13.8195 1.34886 13.9066C1.29666 13.9249 1.24345 13.934 1.1921 13.934Z" fill="black"/>
<path d="M9.93022 19.8618C9.74425 19.8618 9.56819 19.7472 9.50039 19.5621C9.41244 19.3246 9.53429 19.0616 9.77178 18.9736L20.9544 14.8544L19.1542 9.90555C19.0671 9.66806 19.19 9.40506 19.4283 9.31795C19.6685 9.23185 19.9305 9.3537 20.0157 9.59203L21.9719 14.9699C22.059 15.2072 21.937 15.4694 21.6996 15.5565L10.0888 19.8343C10.0366 19.8526 9.98342 19.8618 9.93022 19.8618Z" fill="black"/>
<path d="M16.5087 15.5077C16.3227 15.5077 16.1467 15.3933 16.0789 15.2081C15.9909 14.9707 16.1128 14.7077 16.3503 14.6195L18.6325 13.779C18.8672 13.6911 19.133 13.8129 19.221 14.0504C19.3091 14.2877 19.1871 14.5509 18.9497 14.6388L16.6673 15.4794C16.6151 15.4995 16.5611 15.5077 16.5087 15.5077Z" fill="black"/>
<path d="M12.0247 13.7636C11.2154 13.7636 10.2686 13.3391 9.47658 12.5463C8.20336 11.2731 7.88078 9.60208 8.74061 8.74141C9.17967 8.30235 9.8386 8.15834 10.5939 8.33357C11.2723 8.49201 11.9653 8.89817 12.5445 9.47839C13.8177 10.7506 14.1413 12.4216 13.2815 13.2833C12.957 13.6068 12.5161 13.7636 12.0247 13.7636ZM9.99083 9.17678C9.78003 9.17678 9.55177 9.22529 9.38863 9.38859C8.96971 9.80835 9.1686 10.9413 10.1246 11.8973C11.0806 12.8524 12.2137 13.0523 12.6334 12.6334C13.0524 12.2135 12.8525 11.0806 11.8965 10.1246C11.4428 9.6709 10.8918 9.34277 10.3859 9.22529C10.2814 9.20145 10.1402 9.17678 9.99083 9.17678Z" fill="black"/>
<path d="M16.9579 10.0843C16.8406 10.0843 16.7232 10.0393 16.6334 9.95034C16.4547 9.77159 16.4547 9.48107 16.6334 9.30232L18.4667 7.4692C18.6455 7.29046 18.936 7.29046 19.1148 7.4692C19.2935 7.64795 19.2935 7.93848 19.1148 8.11722L17.2815 9.95034C17.1925 10.0393 17.0752 10.0843 16.9579 10.0843Z" fill="black"/>
<path d="M3.20861 14.6672C3.09129 14.6672 2.97397 14.6224 2.88418 14.5335C2.70544 14.3547 2.70544 14.0642 2.88418 13.8854L4.71747 12.0522C4.89621 11.8734 5.18674 11.8734 5.36549 12.0522C5.54423 12.2309 5.54423 12.5214 5.36549 12.7002L3.5322 14.5335C3.44325 14.6224 3.32593 14.6672 3.20861 14.6672Z" fill="black"/>
</g>
<defs>
<clipPath id="clip0_1333_2871">
<rect width="22" height="22" fill="white"/>
</clipPath>
</defs>
</svg>
